<svg width="63" height="22" viewBox="0 0 63 22" fill="none" xmlns="http://www.w3.org/2000/svg">
<path fill-rule="evenodd" clip-rule="evenodd" d="M53.5366 0.524627H55.9519L57.9634 5.38505L59.9857 0.524627H62.401V10.4707H59.9713L59.9857 7.60696L60.1335 5.59899L60.0506 5.58398L58.7961 8.99941H57.1379L55.8581 5.58398L55.7896 5.59899L55.9519 7.60696V10.4707H53.5366V0.524627ZM2.44442 4.69821H6.12862V7.04398H2.44442V10.4707H0.00390625V0.524627H6.65494V2.91168H2.44442V4.69821ZM12.3795 4.42798H16.2512V6.60485H12.3795V8.09488H16.59V10.4669H9.939V0.520874H16.59V2.88541H12.3795V4.42798ZM23.7313 5.14485C23.9837 5.14485 24.1928 5.08855 24.3658 4.97595C24.5352 4.86336 24.665 4.72449 24.7515 4.55559C24.838 4.3867 24.8813 4.20654 24.8813 4.00762C24.8813 3.8087 24.838 3.62855 24.7515 3.45965C24.665 3.29075 24.5388 3.15189 24.3658 3.03929C24.1964 2.92669 23.9837 2.87039 23.7313 2.87039H22.3146V5.14485H23.7313ZM22.3146 10.4707H19.8741V0.524627H23.6917C24.1855 0.524627 24.6434 0.584679 25.0687 0.708535C25.4905 0.828638 25.8618 1.02381 26.1826 1.28278C26.5035 1.5455 26.7522 1.8833 26.9361 2.2999C27.1199 2.71651 27.2209 3.21569 27.2389 3.79369C27.2389 4.72073 27.0731 5.44886 26.7414 5.97806C26.4098 6.50727 25.9483 6.86382 25.3643 7.05149L27.9671 10.4632H24.957L22.7436 7.30295H22.3146V10.4707ZM35.1084 5.14485C35.3607 5.14485 35.5734 5.08855 35.7428 4.97595C35.9123 4.86336 36.042 4.72449 36.1286 4.55559C36.2151 4.3867 36.2583 4.20654 36.2583 4.00762C36.2583 3.8087 36.2151 3.62855 36.1286 3.45965C36.042 3.29075 35.9159 3.15189 35.7428 3.03929C35.5734 2.92669 35.3607 2.87039 35.1084 2.87039H33.6916V5.14485H35.1084ZM33.6916 10.4707H31.2511V0.524627H35.0687C35.5626 0.524627 36.0204 0.584679 36.4458 0.708535C36.8676 0.828638 37.2389 1.02381 37.5597 1.28278C37.8805 1.5455 38.1293 1.8833 38.3167 2.2999C38.5006 2.71651 38.6015 3.21569 38.6195 3.79369C38.6195 4.72073 38.4537 5.44886 38.1185 5.97806C37.7868 6.50727 37.3254 6.86382 36.7414 7.05149L39.3441 10.4632H36.334L34.1206 7.30295H33.6916V10.4707ZM45.0687 7.14156C45.0687 7.4118 45.1372 7.63699 45.2706 7.81714C45.4039 7.99355 45.5734 8.12866 45.7753 8.21874C45.9771 8.30882 46.197 8.35386 46.4313 8.35386C46.6657 8.35386 46.882 8.30882 47.0874 8.21499C47.2893 8.12116 47.4623 7.98604 47.5993 7.81339C47.7363 7.64074 47.8084 7.41555 47.8084 7.14532V0.524627H50.2489V7.14156C50.2489 7.72331 50.1408 8.23375 49.9173 8.67288C49.6974 9.11201 49.4054 9.47982 49.0485 9.76882C48.688 10.0616 48.2807 10.2755 47.8264 10.4219C47.3722 10.5683 46.9072 10.6396 46.4313 10.6396C45.9555 10.6396 45.4869 10.5683 45.029 10.4219C44.5712 10.2755 44.1639 10.0578 43.807 9.76882C43.4501 9.47982 43.1653 9.11201 42.949 8.67288C42.7327 8.23375 42.6246 7.72331 42.6246 7.14156V0.524627H45.0651V7.14156H45.0687Z" fill="#233B82"/>
<path fill-rule="evenodd" clip-rule="evenodd" d="M6.01657 14.8472V15.9282C5.75341 15.778 5.50107 15.6467 5.25954 15.5416C5.01801 15.4365 4.77648 15.3539 4.53135 15.2976C4.39437 15.2713 4.25378 15.2488 4.11679 15.2301C3.97981 15.2113 3.83561 15.2038 3.69141 15.2038C2.91997 15.2038 2.27829 15.459 1.7664 15.9657C1.2545 16.4761 0.998557 17.1179 0.998557 17.8948C0.998557 18.6868 1.2509 19.3286 1.75558 19.824C2.26027 20.3194 2.91996 20.5671 3.73107 20.5671C3.92212 20.5671 4.11679 20.5484 4.31506 20.5146C4.51333 20.4808 4.7116 20.4283 4.90987 20.3607C5.10814 20.2932 5.30641 20.2106 5.50467 20.113C5.70294 20.0154 5.89761 19.9028 6.08867 19.7715V20.8636C5.75702 21.0476 5.40013 21.1977 5.01441 21.3103C4.62869 21.4229 4.17086 21.4792 3.64455 21.4792C2.6496 21.4792 1.86733 21.2202 1.29776 20.7023C0.731793 20.1843 0.349676 19.6101 0.158616 18.987C0.104543 18.8144 0.0648883 18.6455 0.0396541 18.4766C0.0144198 18.3077 0 18.1463 0 17.9887C0 16.9153 0.349675 16.0295 1.04542 15.3276C1.74116 14.6258 2.62797 14.2767 3.70223 14.2767C4.0519 14.2767 4.40879 14.3218 4.77648 14.4156C5.14418 14.5094 5.55875 14.6558 6.02017 14.8547V14.8472H6.01657ZM14.553 14.318L17.5739 21.3891H16.5825L15.6813 19.3173H12.8082L11.9574 21.3891H10.9661L13.868 14.318H14.553ZM14.1961 15.8643L13.1867 18.409H15.2848L14.1961 15.8643ZM22.4585 14.3593H24.5674C25.3064 14.3668 25.8507 14.5657 26.1968 14.9636C26.5428 15.3577 26.7159 15.8343 26.7159 16.3898C26.7159 16.9378 26.532 17.4069 26.1679 17.786C25.8002 18.1688 25.227 18.3565 24.4412 18.3565H23.4318V21.3853H22.4621V14.3593H22.4585ZM23.4282 15.2676V17.4445H24.5277C24.8918 17.452 25.1802 17.3581 25.3929 17.1667C25.6092 16.9753 25.7137 16.7013 25.7137 16.3523C25.7137 16.3297 25.7137 16.311 25.7137 16.296C25.7137 16.2772 25.7137 16.2622 25.7137 16.2472C25.6921 16.0032 25.5984 15.7818 25.4325 15.5791C25.2631 15.3764 24.9747 15.2713 24.5674 15.2713H23.4282V15.2676ZM32.7252 14.3593V21.3891H31.7555V14.3593H32.7252ZM43.4822 14.3593V15.2676H41.1463V21.3891H40.1765V15.2676H37.8406V14.3593H43.4822ZM50.4361 14.318L53.457 21.3891H52.4656L51.5644 19.3173H48.6949L47.8442 21.3891H46.8528L49.7547 14.318H50.4361ZM50.0792 15.8643L49.0698 18.409H51.1679L50.0792 15.8643ZM59.3474 14.3593V20.4808H62.3971V21.3891H58.3777V14.3593H59.3474Z" fill="#233B82"/>
</svg>
