<svg width="16" height="16" viewBox="0 0 16 16" fill="none" xmlns="http://www.w3.org/2000/svg">
<path opacity="0.2" d="M7.85995 9.47331L5.67995 11.6533C5.43995 11.44 5.20662 11.22 4.97995 10.9933C4.29328 10.3 3.67328 9.57331 3.11995 8.81331C2.57328 8.05331 2.13328 7.29331 1.81328 6.53998C1.49328 5.77998 1.33328 5.05331 1.33328 4.35998C1.33328 3.90665 1.41328 3.47331 1.57328 3.07331C1.73328 2.66665 1.98662 2.29331 2.33995 1.95998C2.76662 1.53998 3.23328 1.33331 3.72662 1.33331C3.91328 1.33331 4.09995 1.37331 4.26662 1.45331C4.43995 1.53331 4.59328 1.65331 4.71328 1.82665L6.25995 4.00665C6.37995 4.17331 6.46662 4.32665 6.52662 4.47331C6.58662 4.61331 6.61995 4.75331 6.61995 4.87998C6.61995 5.03998 6.57328 5.19998 6.47995 5.35331C6.39328 5.50665 6.26662 5.66665 6.10662 5.82665L5.59995 6.35331C5.52662 6.42665 5.49328 6.51331 5.49328 6.61998C5.49328 6.67331 5.49995 6.71998 5.51328 6.77331C5.53328 6.82665 5.55328 6.86665 5.56662 6.90665C5.68662 7.12665 5.89328 7.41331 6.18662 7.75998C6.48662 8.10665 6.80662 8.45998 7.15328 8.81331C7.39328 9.04665 7.62662 9.27331 7.85995 9.47331Z" fill="#233B82"/>
<path d="M14.6465 12.22C14.6465 12.4067 14.6132 12.6 14.5465 12.7867C14.5265 12.84 14.5065 12.8933 14.4799 12.9467C14.3665 13.1867 14.2199 13.4134 14.0265 13.6267C13.6999 13.9867 13.3399 14.2467 12.9332 14.4134C12.9265 14.4134 12.9199 14.42 12.9132 14.42C12.5199 14.58 12.0932 14.6667 11.6332 14.6667C10.9532 14.6667 10.2265 14.5067 9.45987 14.18C8.6932 13.8534 7.92654 13.4134 7.16654 12.86C6.90654 12.6667 6.64654 12.4733 6.39987 12.2667L8.57987 10.0867C8.76654 10.2267 8.9332 10.3333 9.0732 10.4067C9.10654 10.42 9.14654 10.44 9.1932 10.46C9.24654 10.48 9.29987 10.4867 9.35987 10.4867C9.47321 10.4867 9.55987 10.4467 9.6332 10.3733L10.1399 9.87335C10.3065 9.70668 10.4665 9.58002 10.6199 9.50002C10.7732 9.40668 10.9265 9.36002 11.0932 9.36002C11.2199 9.36002 11.3532 9.38668 11.4999 9.44668C11.6465 9.50668 11.7999 9.59335 11.9665 9.70668L14.1732 11.2733C14.3465 11.3933 14.4665 11.5333 14.5399 11.7C14.6065 11.8667 14.6465 12.0333 14.6465 12.22Z" fill="#233B82"/>
</svg>
