<svg width="16" height="16" viewBox="0 0 16 16" fill="none" xmlns="http://www.w3.org/2000/svg">
<path opacity="0.2" d="M11.3335 13.6668H4.66683C2.66683 13.6668 1.3335 12.6668 1.3335 10.3335V5.66683C1.3335 3.3335 2.66683 2.3335 4.66683 2.3335H11.3335C13.3335 2.3335 14.6668 3.3335 14.6668 5.66683V10.3335C14.6668 12.6668 13.3335 13.6668 11.3335 13.6668Z" fill="#233B82"/>
<path d="M8.00239 9C7.41797 9 6.82659 8.83139 6.37436 8.48766L4.19669 6.86633C3.97405 6.69771 3.93231 6.3929 4.1132 6.18537C4.2941 5.97784 4.6211 5.93893 4.84373 6.10755L7.02139 7.72888C7.55016 8.12449 8.44766 8.12449 8.97642 7.72888L11.1541 6.10755C11.3767 5.93893 11.7107 5.97135 11.8846 6.18537C12.0655 6.3929 12.0307 6.7042 11.8011 6.86633L9.62347 8.48766C9.17819 8.83139 8.58681 9 8.00239 9Z" fill="#233B82"/>
</svg>
